<svg width="23" height="21" viewBox="0 0 23 21" fill="none" xmlns="http://www.w3.org/2000/svg">
<path fill-rule="evenodd" clip-rule="evenodd" d="M9.63257 18.2032C12.0466 20.6152 15.4599 21.3442 18.8732 19.8377L21.7382 21.001L20.7895 18.6627C23.9707 16.02 23.4093 12.3904 21.0589 9.91642C20.9029 10.8601 20.5948 11.7698 20.1476 12.6076C19.4894 13.8213 18.5923 14.8783 17.5146 15.7098C16.4085 16.5763 15.1629 17.2327 13.8356 17.6487C12.473 18.0697 11.0537 18.2596 9.63257 18.2109V18.2032ZM5.91236 10.4884C5.76396 10.4797 5.62441 10.4124 5.52232 10.3005C5.42024 10.1885 5.36337 10.0404 5.36337 9.88637C5.36337 9.73236 5.42024 9.58419 5.52232 9.47225C5.62441 9.36031 5.76396 9.29308 5.91236 9.28435H11.5133C11.6617 9.29308 11.8012 9.36031 11.9033 9.47225C12.0054 9.58419 12.0623 9.73236 12.0623 9.88637C12.0623 10.0404 12.0054 10.1885 11.9033 10.3005C11.8012 10.4124 11.6617 10.4797 11.5133 10.4884H5.91236ZM5.91236 7.14964C5.76396 7.14091 5.62441 7.07368 5.52232 6.96174C5.42024 6.8498 5.36337 6.70163 5.36337 6.54762C5.36337 6.39361 5.42024 6.24544 5.52232 6.1335C5.62441 6.02156 5.76396 5.95433 5.91236 5.9456H13.9142C14.0626 5.95433 14.2021 6.02156 14.3042 6.1335C14.4063 6.24544 14.4632 6.39361 14.4632 6.54762C14.4632 6.70163 14.4063 6.8498 14.3042 6.96174C14.2021 7.07368 14.0626 7.14091 13.9142 7.14964H5.91236ZM10.1603 0.00487274C12.8793 0.0960001 15.3102 1.09452 17.0487 2.63981C18.8246 4.21612 19.8875 6.36246 19.822 8.70268C19.7527 11.0565 18.5644 13.133 16.6987 14.6008C14.8686 16.0394 12.3816 16.8867 9.67 16.8053C8.93612 16.7837 8.20571 16.6922 7.48802 16.5319C6.85749 16.3928 6.23958 16.1982 5.64102 15.9502L1.25462 17.734L2.71987 14.1219C1.90829 13.4021 1.23965 12.5256 0.751228 11.5412C0.227856 10.4797 -0.0295446 9.29895 0.00269562 8.10745C0.0738062 5.76334 1.2621 3.68874 3.12782 2.21519C4.95798 0.780424 7.44685 -0.0726824 10.1565 0.00487274H10.1603ZM10.1322 1.2031H10.1229C7.67516 1.13524 5.45576 1.88946 3.8277 3.16912C2.23332 4.42164 1.21906 6.17826 1.16292 8.14817C1.13799 9.13826 1.35356 10.119 1.78982 11.0003C2.27204 11.964 2.95004 12.808 3.77717 13.4743L4.11963 13.7573L3.38606 15.5741L5.64663 14.6531L5.86558 14.75C6.4639 15.0124 7.08483 15.2156 7.72007 15.3569C8.37192 15.5026 9.03526 15.5864 9.70181 15.607C12.1345 15.6807 14.3801 14.9265 16.0007 13.6449C17.5932 12.3924 18.6075 10.6377 18.6655 8.67554C18.7198 6.71533 17.8122 4.90442 16.2964 3.5569C14.7469 2.17448 12.5706 1.28647 10.136 1.20892L10.1322 1.2031Z" fill="#445668"/>
</svg>
