<svg width="24" height="24" viewBox="0 0 24 24" fill="none" xmlns="http://www.w3.org/2000/svg">
<path d="M12 0C15.3145 0 18.3145 1.34375 20.4844 3.51562C22.6562 5.6875 24 8.6875 24 12C24 15.3145 22.6562 18.3145 20.4844 20.4844C18.3125 22.6562 15.3125 24 12 24C8.6875 24 5.68555 22.6562 3.51562 20.4844C1.34375 18.3145 0 15.3145 0 12C0 8.68555 1.34375 5.68555 3.51562 3.51562C5.68555 1.34375 8.68555 0 12 0ZM9.08008 16.998C10.252 19.4414 13.8047 19.5273 14.9277 17.0117C14.6211 16.7012 14.3945 16.3711 14.1699 16.041C14.1328 15.9863 14.0957 15.9336 14.0586 15.8789C13.5176 16.3086 12.8594 16.582 12.002 16.5801C11.0781 16.5781 10.3828 16.2246 9.8125 15.7031C9.7793 15.6719 9.74414 15.6406 9.71094 15.6074C9.62891 15.834 9.52539 16.1055 9.41406 16.3594C9.30664 16.6035 9.19141 16.832 9.08008 16.998ZM18.0977 21.0605L18.3633 18.2324C17.3809 18.041 16.3281 17.834 15.2402 17.207C14.4258 19.9199 10.0488 20.2422 8.81641 17.2773C7.83984 17.7695 6.8457 18.0508 5.71289 18.2246L6.09766 21.1875C7.79883 22.2832 9.82617 22.9199 12.002 22.9199C14.2578 22.9199 16.3555 22.2344 18.0977 21.0605ZM3.23438 18.5137L3.28125 18.4863C4.44531 17.8379 7.47461 17.623 8.73242 16.7461C8.82422 16.6074 8.92383 16.4062 9.01953 16.1875C9.16406 15.8574 9.29492 15.498 9.37891 15.252C9.02734 14.8379 8.72656 14.3711 8.4375 13.9102L7.48438 12.3945C7.13672 11.875 6.95508 11.4004 6.94336 11.0098C6.9375 10.8262 6.96875 10.6602 7.03711 10.5137C7.10742 10.3594 7.2168 10.2324 7.36523 10.1328C7.43359 10.0859 7.51172 10.0469 7.5957 10.0156C7.5332 9.19336 7.51172 8.1582 7.55078 7.29102C7.57031 7.08594 7.61133 6.87891 7.66797 6.67383C7.91211 5.80469 8.52148 5.10352 9.27734 4.62305C9.69336 4.35742 10.1504 4.1582 10.627 4.02344C10.9297 3.9375 10.3691 2.9707 10.6816 2.9375C12.1953 2.78125 14.6426 4.16406 15.6992 5.30664C16.2285 5.87891 16.5605 6.63867 16.6328 7.64258L16.5742 10.1152C16.8379 10.1953 17.0078 10.3633 17.0762 10.6348C17.1523 10.9355 17.0703 11.3594 16.8145 11.9355C16.8105 11.9453 16.8047 11.957 16.7988 11.9668L15.7129 13.7559C15.3145 14.4121 14.9082 15.0723 14.3809 15.5918C14.4277 15.6602 14.4766 15.7285 14.5234 15.7988C14.7383 16.1133 14.9551 16.4297 15.2324 16.7109C15.2422 16.7207 15.25 16.7305 15.2559 16.7402C16.5059 17.623 19.5488 17.8379 20.7168 18.4883L20.7637 18.5156C22.1172 16.6973 22.918 14.4434 22.918 12.002C22.918 8.98633 21.6953 6.25586 19.7188 4.28125C17.7461 2.30273 15.0156 1.08008 12 1.08008C8.98438 1.08008 6.25391 2.30273 4.2793 4.2793C2.30273 6.25391 1.08008 8.98438 1.08008 12C1.08008 14.4414 1.88086 16.6953 3.23438 18.5137ZM8.14648 10.457C7.93555 10.4648 7.77539 10.5098 7.66602 10.582C7.60352 10.623 7.55859 10.6777 7.5293 10.7402C7.49609 10.8105 7.48242 10.8965 7.48438 10.9961C7.49219 11.2852 7.64453 11.6641 7.9375 12.1016L7.94141 12.1074L8.89453 13.623C9.27734 14.2305 9.67773 14.8496 10.1758 15.3047C10.6543 15.7422 11.2344 16.0391 12.0039 16.041C12.8359 16.043 13.4434 15.7344 13.9375 15.2734C14.4512 14.793 14.8555 14.1348 15.2559 13.4766L16.3301 11.709C16.5293 11.252 16.6035 10.9473 16.5566 10.7676C16.5293 10.6602 16.4121 10.6094 16.2109 10.5977C16.168 10.5957 16.125 10.5957 16.0801 10.5957C16.0332 10.5977 15.9824 10.5996 15.9297 10.6055C15.9004 10.6074 15.873 10.6055 15.8477 10.5996C15.752 10.6055 15.6543 10.5977 15.5527 10.584L15.9199 8.95703C13.1934 9.38672 11.1523 7.36133 8.26953 8.55273L8.47656 10.4707C8.35742 10.4766 8.24805 10.4727 8.14648 10.457Z" fill="#445668"/>
</svg>
